<svg xmlns="http://www.w3.org/2000/svg" xmlns:xlink="http://www.w3.org/1999/xlink" width="1008.78" height="1008.78" viewBox="0 0 1008.78 1008.78">
  <defs>
    <clipPath id="clip-GH">
      <rect width="1008.78" height="1008.78"/>
    </clipPath>
  </defs>
  <g id="GH" clip-path="url(#clip-GH)">
    <path id="Exclusion_2" data-name="Exclusion 2" d="M-2234,5172h-809a100.732,100.732,0,0,1-20.154-2.032,99.487,99.487,0,0,1-18.771-5.827,99.992,99.992,0,0,1-16.986-9.22,100.735,100.735,0,0,1-14.8-12.21,100.755,100.755,0,0,1-12.21-14.8,100.014,100.014,0,0,1-9.22-16.986,99.514,99.514,0,0,1-5.826-18.771A100.743,100.743,0,0,1-3143,5072V4263a100.735,100.735,0,0,1,2.032-20.153,99.492,99.492,0,0,1,5.826-18.771,99.98,99.98,0,0,1,9.22-16.986,100.7,100.7,0,0,1,12.21-14.8,100.694,100.694,0,0,1,14.8-12.211,100,100,0,0,1,16.986-9.22,99.458,99.458,0,0,1,18.771-5.827A100.741,100.741,0,0,1-3043,4163h809a100.739,100.739,0,0,1,20.154,2.032,99.485,99.485,0,0,1,18.771,5.827,99.991,99.991,0,0,1,16.986,9.22,100.7,100.7,0,0,1,14.8,12.211,100.7,100.7,0,0,1,12.211,14.8,99.986,99.986,0,0,1,9.22,16.986,99.484,99.484,0,0,1,5.827,18.771A100.727,100.727,0,0,1-2134,4263v809a100.736,100.736,0,0,1-2.032,20.154,99.506,99.506,0,0,1-5.827,18.771,100.022,100.022,0,0,1-9.22,16.986,100.727,100.727,0,0,1-12.211,14.8,100.719,100.719,0,0,1-14.8,12.21,99.984,99.984,0,0,1-16.986,9.22,99.478,99.478,0,0,1-18.771,5.827A100.73,100.73,0,0,1-2234,5172Zm-404.613-909.52a437.25,437.25,0,0,0-55.379,3.479,407.521,407.521,0,0,0-53.184,10.438,400.121,400.121,0,0,0-50.987,17.4,414.947,414.947,0,0,0-48.788,24.353,432.386,432.386,0,0,0-45.211,30.316,411.02,411.02,0,0,0-40.245,35.281,411.144,411.144,0,0,0-35.28,40.246,432.8,432.8,0,0,0-30.317,45.212,415.092,415.092,0,0,0-24.354,48.791,400.21,400.21,0,0,0-17.4,50.985,407.467,407.467,0,0,0-10.438,53.178,437.131,437.131,0,0,0-3.479,55.373c0,11.254.416,22.521,1.237,33.489s2.069,21.948,3.711,32.635,3.722,21.376,6.185,31.78,5.375,20.8,8.659,30.927,7.031,20.241,11.134,30.074,8.684,19.67,13.608,29.22,10.335,19.1,16.083,28.367,11.991,18.529,18.557,27.515,13.465,17.746,20.515,26.047,14.432,16.354,21.959,23.961,15.4,14.964,23.4,21.875,16.362,13.568,24.848,19.789,17.331,12.176,26.291,17.7,18.293,10.782,27.735,15.618,19.261,9.389,29.179,13.531,20.22,7.993,30.623,11.446a43.838,43.838,0,0,0,7.925.8,24.621,24.621,0,0,0,7.789-1.145,16.219,16.219,0,0,0,5.9-3.429,21.623,21.623,0,0,0,5.269-7.295,22.291,22.291,0,0,0,1.755-8.912c0-1-.082-9.732-.273-29.183-.181-18.03-.272-34.21-.272-48.091l-12.429,2.149a148.82,148.82,0,0,1-26.07,1.922c-1.25,0-2.571-.01-3.926-.029a229.3,229.3,0,0,1-37.559-3.784,81.166,81.166,0,0,1-18.781-5.8,89.433,89.433,0,0,1-17.43-10.4,68.234,68.234,0,0,1-14.317-14.66,71.846,71.846,0,0,1-9.458-18.572l-5.405-12.436c-3.6-8.274-9.326-17.546-17.021-27.558a88.111,88.111,0,0,0-11.687-12.7,49.11,49.11,0,0,0-11.82-7.833l-3.784-2.709a39.917,39.917,0,0,1-7.025-6.491,29.816,29.816,0,0,1-4.861-7.566,4.239,4.239,0,0,1-.138-3.45,6.27,6.27,0,0,1,2.839-2.775c2.885-1.625,8.011-2.416,15.673-2.416l10.8,1.615a51.72,51.72,0,0,1,12.092,4.322,119.66,119.66,0,0,1,14.662,8.646,85.522,85.522,0,0,1,14.522,12.428,91.445,91.445,0,0,1,11.687,15.667,111.847,111.847,0,0,0,13.713,19.526,83.436,83.436,0,0,0,16.281,14.255,73.9,73.9,0,0,0,17.63,8.713,56.975,56.975,0,0,0,17.765,2.9,154.41,154.41,0,0,0,30.805-2.693,107.938,107.938,0,0,0,24.318-8.111,123.305,123.305,0,0,1,3.479-17.063,95.181,95.181,0,0,1,5.573-14.965,78.651,78.651,0,0,1,7.667-12.869,71.975,71.975,0,0,1,9.759-10.773,371.924,371.924,0,0,1-55.394-9.73,196.185,196.185,0,0,1-24.992-8.514,250.99,250.99,0,0,1-25.8-12.572,156.431,156.431,0,0,1-23.988-16.347,138.5,138.5,0,0,1-19.521-19.858,141.008,141.008,0,0,1-15.74-25,217.705,217.705,0,0,1-12.628-31.75,229.794,229.794,0,0,1-8.308-37.833,321.1,321.1,0,0,1-2.77-43.232,181.861,181.861,0,0,1,2.669-31.484,157.841,157.841,0,0,1,8.007-29.05,152.344,152.344,0,0,1,13.343-26.616,164.748,164.748,0,0,1,18.68-24.186,123.384,123.384,0,0,1-7.265-25.33,130.876,130.876,0,0,1-1.792-26.817,156.6,156.6,0,0,1,3.681-28.3,203.63,203.63,0,0,1,9.155-29.792,34.489,34.489,0,0,1,10.193-1.391,70.811,70.811,0,0,1,16.214,2.171,151.987,151.987,0,0,1,20.072,6.513c20.391,8.049,35.574,15.051,45.126,20.811,9.3,5.606,17.033,10.515,22.971,14.591a379.856,379.856,0,0,1,51.075-10.536,394.121,394.121,0,0,1,52.69-3.512,394.186,394.186,0,0,1,52.693,3.512,379.847,379.847,0,0,1,51.081,10.536l20.537-12.966a248.462,248.462,0,0,1,22.965-12.433c8.244-3.943,17.242-7.762,26.745-11.35a138.3,138.3,0,0,1,18.148-5.589,68.964,68.964,0,0,1,14.939-1.863,35.079,35.079,0,0,1,10.7,1.511,202.98,202.98,0,0,1,9.387,29.792,155.306,155.306,0,0,1,3.849,28.3,129.342,129.342,0,0,1-1.691,26.817,121.873,121.873,0,0,1-7.232,25.33,164.709,164.709,0,0,1,18.68,24.187,152.387,152.387,0,0,1,13.345,26.618,157.9,157.9,0,0,1,8.008,29.05,181.8,181.8,0,0,1,2.67,31.48,322.21,322.21,0,0,1-2.775,43.3,234.159,234.159,0,0,1-8.3,38.033,210.7,210.7,0,0,1-12.694,31.887,134.746,134.746,0,0,1-15.936,24.86,143.589,143.589,0,0,1-19.735,19.663,162.558,162.558,0,0,1-24.049,16.276,251.567,251.567,0,0,1-25.811,12.565,196.587,196.587,0,0,1-25,8.514,371.449,371.449,0,0,1-55.392,9.74,70.154,70.154,0,0,1,12.292,13.913,81.405,81.405,0,0,1,8.78,17.428,110.094,110.094,0,0,1,5.268,20.942,160.877,160.877,0,0,1,1.756,24.454V5051.5a23.032,23.032,0,0,0,1.69,8.912,21.623,21.623,0,0,0,5.072,7.3,15.38,15.38,0,0,0,5.744,3.428,23.945,23.945,0,0,0,7.7,1.145,43.717,43.717,0,0,0,7.9-.8c10.4-3.45,20.7-7.3,30.626-11.444s19.736-8.694,29.181-13.531,18.778-10.092,27.737-15.617,17.812-11.485,26.292-17.7,16.842-12.875,24.848-19.789,15.877-14.271,23.4-21.875,14.916-15.669,21.959-23.962,13.949-17.061,20.515-26.047,12.808-18.243,18.554-27.514,11.156-18.813,16.081-28.367,9.5-19.384,13.607-29.22,7.85-19.955,11.134-30.073,6.2-20.523,8.66-30.927,4.544-21.1,6.186-31.781,2.89-21.662,3.712-32.635,1.237-22.236,1.237-33.489a437.231,437.231,0,0,0-3.491-55.366,407.774,407.774,0,0,0-10.445-53.174,400.557,400.557,0,0,0-17.4-50.981,415.546,415.546,0,0,0-24.346-48.79,432.691,432.691,0,0,0-30.318-45.212,411.29,411.29,0,0,0-35.28-40.246,411.271,411.271,0,0,0-40.243-35.281,432.57,432.57,0,0,0-45.208-30.316,415.044,415.044,0,0,0-48.793-24.355,400.054,400.054,0,0,0-50.984-17.4,407.411,407.411,0,0,0-53.18-10.437A437.3,437.3,0,0,0-2638.613,4262.48Z" transform="translate(3143 -4163)" fill="#fff"/>
  </g>
</svg>
