<svg xmlns="http://www.w3.org/2000/svg" xmlns:xlink="http://www.w3.org/1999/xlink" width="1008.78" height="1008.78" viewBox="0 0 1008.78 1008.78">
  <defs>
    <clipPath id="clip-GP">
      <rect width="1008.78" height="1008.78"/>
    </clipPath>
  </defs>
  <g id="GP" clip-path="url(#clip-GP)">
    <path id="Exclusion_1" data-name="Exclusion 1" d="M-929.5,1783c278.628,0,504.5,225.872,504.5,504.5S-650.872,2792-929.5,2792-1434,2566.128-1434,2287.5-1208.128,1783-929.5,1783Z" transform="translate(1434 -1783)" fill="#1989ac"/>
    <path id="Path_9" data-name="Path 9" d="M614.6.009H328.423L284.7,226.5c-6.956,35.418-28.817,60.584-71.048,60.584s-52.665-26.1-45.709-60.584l18.88-97.4h-.5C204.212,7.931,72.549,4.2,72.549,4.2l-.5-1.4L28.827,226.5C5.476,345.336,77.021,405.92,189.307,405.92c60.615,0,116.758-15.379,159.486-49.865s64.093-72.7,75.52-129.556c0,0,10.434-48.933,13.415-65.71,6.956-41.943,31.3-56.856,31.3-56.856s12.421,25.632,38.754,29.826a57.119,57.119,0,0,0,20.37-.932,39,39,0,0,1-18.88-2.33c-11.924-4.194-26.333-14.913-36.766-36.816,0,0-4.968-11.185,7.949-6.058a85.289,85.289,0,0,0,43.722,6.058,3.1,3.1,0,0,1,2.981-.932,31.947,31.947,0,0,0,8.943-4.66s-23.352,3.262-29.81-2.8a96.192,96.192,0,0,0,32.295-13.049A93.91,93.91,0,0,1,594.73,61.991c7.949.932,16.893,6.058,26.829,7.922A505.82,505.82,0,0,0,677.7,76.9s7.95,24.7-1.49,27.962l-5.465,2.8s1.987,19.573-2.981,27.962c0,0-8.446-19.573-11.924-17.709a89.082,89.082,0,0,0-35.276,21.9,36.908,36.908,0,0,0-8.446,15.845l-1.491,7.922v12.583s2.484,18.175,7.949,26.1a44.225,44.225,0,0,0,14.905-6.058,41.363,41.363,0,0,1-7.949,13.049c1.491,1.864,3.478,5.126,1.491,6.99-10.764,11.884-28.69,15.514-43.722,8.855,0,0,5.465-27.962-16.4-27.03-33.288.932-67.57,25.166-84.463,41.943C444.684,275.432,347.3,399.862,347.3,399.862H478.966L504.3,272.17h54.652c112.286,0,181.844-61.05,196.75-135.614C771.606,55,724.9-.923,614.6.009" transform="translate(112.818 301.431)" fill="#fff"/>
  </g>
</svg>
