<svg xmlns="http://www.w3.org/2000/svg" xmlns:xlink="http://www.w3.org/1999/xlink" width="1008.78" height="1008.78" viewBox="0 0 1008.78 1008.78">
  <defs>
    <clipPath id="clip-LI">
      <rect width="1008.78" height="1008.78"/>
    </clipPath>
  </defs>
  <g id="LI" clip-path="url(#clip-LI)">
    <path id="Exclusion_3" data-name="Exclusion 3" d="M-3313,5172h-809a100.727,100.727,0,0,1-20.153-2.032,99.484,99.484,0,0,1-18.771-5.827,100,100,0,0,1-16.986-9.22,100.722,100.722,0,0,1-14.8-12.21,100.718,100.718,0,0,1-12.211-14.8,100.02,100.02,0,0,1-9.22-16.986,99.466,99.466,0,0,1-5.827-18.771A100.743,100.743,0,0,1-4222,5072V4263a100.735,100.735,0,0,1,2.032-20.153,99.444,99.444,0,0,1,5.827-18.771,99.933,99.933,0,0,1,9.22-16.986,100.667,100.667,0,0,1,12.211-14.8,100.725,100.725,0,0,1,14.8-12.211,99.984,99.984,0,0,1,16.986-9.22,99.444,99.444,0,0,1,18.771-5.827A100.735,100.735,0,0,1-4122,4163h809a100.739,100.739,0,0,1,20.154,2.032,99.463,99.463,0,0,1,18.771,5.827,100.015,100.015,0,0,1,16.986,9.22,100.707,100.707,0,0,1,14.8,12.211,100.7,100.7,0,0,1,12.211,14.8,99.986,99.986,0,0,1,9.22,16.986,99.484,99.484,0,0,1,5.827,18.771A100.727,100.727,0,0,1-3213,4263v809a100.736,100.736,0,0,1-2.032,20.154,99.506,99.506,0,0,1-5.827,18.771,100.022,100.022,0,0,1-9.22,16.986,100.727,100.727,0,0,1-12.211,14.8,100.729,100.729,0,0,1-14.8,12.21,100.042,100.042,0,0,1-16.986,9.22,99.486,99.486,0,0,1-18.771,5.827A100.73,100.73,0,0,1-3313,5172Zm-684.726-846.6a61.474,61.474,0,0,0-24.083,4.862,61.916,61.916,0,0,0-10.51,5.7,62.267,62.267,0,0,0-9.156,7.556,62.286,62.286,0,0,0-7.555,9.156,61.842,61.842,0,0,0-5.7,10.51,61.487,61.487,0,0,0-4.862,24.083V4947.5a61.49,61.49,0,0,0,4.862,24.083,61.879,61.879,0,0,0,5.7,10.51,62.307,62.307,0,0,0,7.555,9.157,62.341,62.341,0,0,0,9.156,7.556,61.884,61.884,0,0,0,10.51,5.7,61.472,61.472,0,0,0,24.083,4.862h560.23a61.477,61.477,0,0,0,24.084-4.862,61.9,61.9,0,0,0,10.51-5.7,62.358,62.358,0,0,0,9.157-7.556,62.3,62.3,0,0,0,7.555-9.157,61.845,61.845,0,0,0,5.7-10.51,61.482,61.482,0,0,0,4.862-24.083v-560.23a61.479,61.479,0,0,0-4.862-24.083,61.845,61.845,0,0,0-5.7-10.51,62.3,62.3,0,0,0-7.555-9.156,62.269,62.269,0,0,0-9.157-7.556,61.919,61.919,0,0,0-10.51-5.7,61.48,61.48,0,0,0-24.084-4.862ZM-3463.959,4934H-3546.2a16.446,16.446,0,0,1-11.706-4.848,16.449,16.449,0,0,1-4.849-11.707v-150.7c0-1.635.034-3.519.074-5.7l0-.087c.175-9.526.44-23.921-1.905-38.407a96.072,96.072,0,0,0-5.81-21.322,57.014,57.014,0,0,0-11.741-18.292,46.417,46.417,0,0,0-16.182-10.687,63.024,63.024,0,0,0-23.19-4.02,62.524,62.524,0,0,0-17.177,2.282,51.413,51.413,0,0,0-13.766,6.215,58.613,58.613,0,0,0-18.807,20.444,97.193,97.193,0,0,0-9.691,24.824,139.98,139.98,0,0,0-3.592,21.633v173.821a16.448,16.448,0,0,1-4.849,11.707A16.449,16.449,0,0,1-3701.1,4934h-79.544a16.448,16.448,0,0,1-11.706-4.848,16.449,16.449,0,0,1-4.849-11.707V4593.25a16.447,16.447,0,0,1,4.849-11.706,16.447,16.447,0,0,1,11.706-4.849h79.544a16.449,16.449,0,0,1,11.707,4.849,16.446,16.446,0,0,1,4.849,11.706v28.03a119.047,119.047,0,0,1,16.159-19.708,97.48,97.48,0,0,1,10.021-8.5,96.2,96.2,0,0,1,11.665-7.358,104.8,104.8,0,0,1,13.572-6.035,124.61,124.61,0,0,1,15.741-4.533,158.461,158.461,0,0,1,18.173-2.852c6.563-.657,13.583-.991,20.867-.991a185.115,185.115,0,0,1,23.051,1.383,143.709,143.709,0,0,1,20.173,3.977,117.666,117.666,0,0,1,17.488,6.314,103.449,103.449,0,0,1,14.994,8.395,98.831,98.831,0,0,1,12.692,10.218,102.611,102.611,0,0,1,10.582,11.783,114.178,114.178,0,0,1,8.663,13.092,133.322,133.322,0,0,1,6.937,14.145,176.888,176.888,0,0,1,9.462,30.417,265.263,265.263,0,0,1,4.857,31.54c2.045,20.948,2.044,41.618,2.042,58.227v156.646a16.449,16.449,0,0,1-4.849,11.707A16.447,16.447,0,0,1-3463.959,4934Zm-401.992,0H-3942.6a17.908,17.908,0,0,1-7.009-1.415,17.951,17.951,0,0,1-5.723-3.859,17.934,17.934,0,0,1-3.858-5.723,17.89,17.89,0,0,1-1.415-7.008V4594.7a17.891,17.891,0,0,1,1.415-7.009,17.938,17.938,0,0,1,3.858-5.723,17.945,17.945,0,0,1,5.723-3.859,17.9,17.9,0,0,1,7.009-1.415h76.644a17.892,17.892,0,0,1,7.009,1.415,17.935,17.935,0,0,1,5.723,3.859,17.938,17.938,0,0,1,3.859,5.723,17.9,17.9,0,0,1,1.415,7.009v321.291a17.894,17.894,0,0,1-1.415,7.008,17.93,17.93,0,0,1-3.859,5.723,17.941,17.941,0,0,1-5.723,3.859A17.9,17.9,0,0,1-3865.951,4934Zm-38.322-387.587a72.359,72.359,0,0,1-28.342-5.722,72.85,72.85,0,0,1-12.368-6.713,73.362,73.362,0,0,1-10.776-8.892,73.317,73.317,0,0,1-8.891-10.776,72.849,72.849,0,0,1-6.713-12.368,72.359,72.359,0,0,1-5.722-28.342,72.362,72.362,0,0,1,5.722-28.342,72.877,72.877,0,0,1,6.713-12.368,73.3,73.3,0,0,1,8.891-10.776,73.362,73.362,0,0,1,10.776-8.892,72.85,72.85,0,0,1,12.368-6.713,72.359,72.359,0,0,1,28.342-5.722,72.361,72.361,0,0,1,28.342,5.722,72.826,72.826,0,0,1,12.368,6.713,73.347,73.347,0,0,1,10.776,8.892,73.292,73.292,0,0,1,8.891,10.776,72.793,72.793,0,0,1,6.713,12.368,72.356,72.356,0,0,1,5.722,28.342,72.359,72.359,0,0,1-5.722,28.342,72.806,72.806,0,0,1-6.713,12.368,73.339,73.339,0,0,1-8.891,10.776,73.362,73.362,0,0,1-10.776,8.892,72.829,72.829,0,0,1-12.368,6.713A72.36,72.36,0,0,1-3904.273,4546.409Z" transform="translate(4222 -4163)" fill="#fff"/>
  </g>
</svg>
