<svg xmlns="http://www.w3.org/2000/svg" xmlns:xlink="http://www.w3.org/1999/xlink" width="1008.78" height="1008.78" viewBox="0 0 1008.78 1008.78">
  <defs>
    <clipPath id="clip-NC">
      <rect width="1008.78" height="1008.78"/>
    </clipPath>
  </defs>
  <g id="NC" clip-path="url(#clip-NC)">
    <path id="Exclusion_1" data-name="Exclusion 1" d="M-929.5,2792a512.618,512.618,0,0,1-51.582-2.6,505.74,505.74,0,0,1-50.092-7.645c-16.253-3.326-32.52-7.508-48.348-12.432-15.651-4.868-31.246-10.576-46.351-16.965-14.965-6.329-29.8-13.477-44.1-21.244-14.194-7.71-28.189-16.212-41.6-25.27-13.339-9.012-26.406-18.783-38.838-29.043-12.4-10.234-24.455-21.189-35.827-32.561s-22.328-23.427-32.561-35.826c-10.259-12.431-20.03-25.5-29.043-38.838-9.057-13.406-17.559-27.4-25.27-41.6-7.767-14.3-14.914-29.135-21.244-44.1-6.39-15.106-12.1-30.7-16.965-46.351-4.923-15.829-9.106-32.1-12.432-48.348a505.79,505.79,0,0,1-7.645-50.092,512.625,512.625,0,0,1-2.6-51.582,512.629,512.629,0,0,1,2.6-51.582,505.773,505.773,0,0,1,7.645-50.093c3.326-16.253,7.508-32.52,12.432-48.348,4.867-15.65,10.575-31.245,16.965-46.351,6.33-14.966,13.478-29.8,21.244-44.1,7.711-14.2,16.214-28.19,25.27-41.6,9.013-13.34,18.784-26.407,29.043-38.838,10.233-12.4,21.188-24.454,32.561-35.827s23.426-22.328,35.827-32.561c12.432-10.26,25.5-20.031,38.838-29.043,13.405-9.057,27.4-17.559,41.6-25.27,14.3-7.766,29.134-14.914,44.1-21.244,15.107-6.39,30.7-12.1,46.351-16.965,15.828-4.923,32.1-9.106,48.348-12.432a505.776,505.776,0,0,1,50.092-7.645A512.631,512.631,0,0,1-929.5,1783a512.636,512.636,0,0,1,51.582,2.6,505.784,505.784,0,0,1,50.092,7.645c16.253,3.326,32.52,7.509,48.349,12.432,15.649,4.867,31.244,10.575,46.351,16.965,14.966,6.33,29.8,13.478,44.1,21.244,14.2,7.712,28.191,16.214,41.6,25.27,13.339,9.012,26.406,18.783,38.838,29.043,12.4,10.234,24.455,21.189,35.826,32.561s22.328,23.427,32.561,35.827c10.259,12.431,20.03,25.5,29.043,38.838,9.056,13.405,17.559,27.4,25.27,41.6,7.767,14.3,14.915,29.136,21.244,44.1,6.39,15.107,12.1,30.7,16.965,46.351,4.923,15.829,9.106,32.1,12.432,48.348a505.782,505.782,0,0,1,7.645,50.093A512.638,512.638,0,0,1-425,2287.5a512.634,512.634,0,0,1-2.6,51.582,505.8,505.8,0,0,1-7.645,50.092c-3.326,16.253-7.508,32.52-12.432,48.348-4.868,15.65-10.575,31.245-16.965,46.351-6.329,14.965-13.477,29.8-21.244,44.1-7.711,14.2-16.214,28.19-25.27,41.6-9.012,13.34-18.784,26.407-29.043,38.838-10.233,12.4-21.189,24.454-32.561,35.826s-23.425,22.326-35.826,32.561c-12.432,10.26-25.5,20.031-38.838,29.043-13.406,9.057-27.4,17.559-41.6,25.27-14.3,7.768-29.136,14.915-44.1,21.244-15.105,6.389-30.7,12.1-46.351,16.965-15.829,4.923-32.1,9.106-48.349,12.432a505.748,505.748,0,0,1-50.092,7.645A512.623,512.623,0,0,1-929.5,2792Zm267.61-315.339c5.656,0,11.963.4,18.64.827h.006c7.315.466,14.879.948,22.306.948a112.371,112.371,0,0,0,15.7-.962,54.1,54.1,0,0,0,13.892-3.665,26.426,26.426,0,0,0,9.085-6.454,27.161,27.161,0,0,0,5.6-9.3,26.464,26.464,0,0,0,1.525-10.367A25.438,25.438,0,0,0-578,2437.245a23.667,23.667,0,0,0-14.177-11.84c-5.984-2.016-12.881-2.363-18.839-2.437-7.489-.093-15.714-.137-25.146-.137-8.007,0-16.148.032-24.022.062h-.152c-7.915.031-16.1.063-24.168.063-9.446,0-19.374.34-28.975.668-9.948.34-20.234.692-30.385.693-10.273,0-19.216-.367-27.338-1.121a167.218,167.218,0,0,1-26.362-4.416,135.828,135.828,0,0,1-23.573-8.459,139.134,139.134,0,0,1-21.337-12.4,142.558,142.558,0,0,1-18.71-15.805,144.235,144.235,0,0,1-15.692-18.69c-19.459-27.635-28.258-60.7-24.776-93.1a112.257,112.257,0,0,1,4.7-21.762,141.624,141.624,0,0,1,8.406-20.635,138.577,138.577,0,0,1,9.6-16.193,158.8,158.8,0,0,1,11.572-14.857c17.433-19.862,39.181-33.137,66.485-40.582,25.93-7.071,53.9-8.024,77.841-8.024,8.437,0,16.974.132,25.229.259h.023c8.105.125,16.487.254,24.6.254,7.489,0,15.467.476,23.913.979,8.759.522,17.815,1.062,26.617,1.062,5.477,0,10.315-.207,14.788-.631a89.93,89.93,0,0,0,13.81-2.308,23.758,23.758,0,0,0,8.71-4.277,25.676,25.676,0,0,0,6.335-7.173,25.905,25.905,0,0,0,3.329-8.993,24.225,24.225,0,0,0-.308-9.739,25.294,25.294,0,0,0-2.865-7.086,24.433,24.433,0,0,0-4.66-5.658,27.254,27.254,0,0,0-13.357-6.406,157.972,157.972,0,0,0-28.75-2.212c-8.6,0-17.414.407-25.934.8s-16.578.766-24.455.766c-9.277,0-18.686-.127-27.786-.25h-.013c-9.015-.122-18.337-.248-27.441-.248-16.318,0-29.479.418-41.418,1.315a279.991,279.991,0,0,0-40.237,5.722c-6.737,1.5-13.309,3.3-19.532,5.345a183.9,183.9,0,0,0-19.064,7.446,173.775,173.775,0,0,0-18.539,9.879,176.444,176.444,0,0,0-17.956,12.645,169.419,169.419,0,0,0-23.007,21.826,108.491,108.491,0,0,0-9.465,12.757,82.272,82.272,0,0,0-7.1,14.01l-.1-.123,0-.005c-13.137-15.4-25.545-29.95-39.414-42.8a195.58,195.58,0,0,0-22.159-17.876,164.427,164.427,0,0,0-25.939-14.632,182.469,182.469,0,0,0-37.627-12.225,190.077,190.077,0,0,0-38.785-3.976,198.646,198.646,0,0,0-51.313,6.789,200.721,200.721,0,0,0-47.8,19.658c-31.073,17.781-56.072,43.254-72.293,73.668a154.576,154.576,0,0,0-6.914,14.809c-1.944,4.815-3.689,9.846-5.185,14.952a192.517,192.517,0,0,0-6.169,30.362c-2.575,20.453-2.515,40.99-2.451,62.734.01,3.255.02,6.62.02,9.987v96.1c0,2.405-.094,4.915-.193,7.571v.01c-.443,11.849-.944,25.279,7.072,34.028a32.6,32.6,0,0,0,9.159,7.231,19.6,19.6,0,0,0,8.87,2.215,20.129,20.129,0,0,0,10.894-3.384,33.343,33.343,0,0,0,8.954-8.717,48.15,48.15,0,0,0,6.2-11.9,45.267,45.267,0,0,0,2.636-12.924c1.245-27.189.856-55.021.481-81.937-.181-13-.369-26.435-.369-39.6,0-4.908-.136-10.01-.268-14.944v-.029c-.422-15.781-.859-32.1,2.811-47.21a133.42,133.42,0,0,1,19.039-43.152,138.534,138.534,0,0,1,31.483-33.167,143.557,143.557,0,0,1,19.21-12.248,143.657,143.657,0,0,1,20.883-9.041,141.306,141.306,0,0,1,22.077-5.6,137.413,137.413,0,0,1,22.791-1.919,133.31,133.31,0,0,1,25.866,2.528,131.776,131.776,0,0,1,25.483,7.808,113.825,113.825,0,0,1,17.825,9.55,140.867,140.867,0,0,1,16.093,12.27,146.907,146.907,0,0,1,17.527,18.272,135.7,135.7,0,0,1,13.076,19.567,142.974,142.974,0,0,1,9.26,20.7,170.244,170.244,0,0,1,6.08,21.667,222.257,222.257,0,0,1,3.535,22.473c.777,7.169,1.309,14.731,1.626,23.116.589,15.588.323,31.815.067,47.508v.019c-.144,8.793-.292,17.886-.292,26.84v53.7c0,1.056-.007,2.147-.016,3.2v.021a85.544,85.544,0,0,0,.536,12.837,26.428,26.428,0,0,0,4.4,11.829,24.85,24.85,0,0,0,9.524,8.049,27.059,27.059,0,0,0,11.732,2.653,27.15,27.15,0,0,0,13.224-3.4,24.813,24.813,0,0,0,9.853-10.054,42.944,42.944,0,0,0,4.42-16.434,147.708,147.708,0,0,0,.186-17.594c-.082-2.809-.16-5.462-.16-8.073a186.294,186.294,0,0,0,20.27,17.212,178.6,178.6,0,0,0,21.32,13.381,187.13,187.13,0,0,0,22.25,10.023,213.137,213.137,0,0,0,23.062,7.139,294.85,294.85,0,0,0,48.078,7.52c14.284,1.151,29.671,1.665,49.888,1.665,9.158,0,18.518-.1,27.571-.2h.021C-680.576,2476.765-671.16,2476.661-661.89,2476.661Zm-432.99-285.286a87.714,87.714,0,0,0-13.595,1.05c-12.72,2-22.6,5.116-31.091,9.8a94.3,94.3,0,0,0-18.313,13.081,87.911,87.911,0,0,0-13.557,15.845,99.307,99.307,0,0,0-9.483,18.109,129.481,129.481,0,0,0-6.092,19.871c-2.759,12.279-4.311,26.353-4.746,43.026-.385,14.738.125,29.646.617,44.063.359,10.5.7,20.412.7,30,0,4.1-.311,9.175-.672,15.051-.886,14.448-1.99,32.429.94,47.206a55.994,55.994,0,0,0,3.021,10.351,32.669,32.669,0,0,0,4.936,8.445,23.054,23.054,0,0,0,7.251,5.878,25.726,25.726,0,0,0,9.966,2.647c.931.066,1.85.1,2.732.1a26.549,26.549,0,0,0,9.565-1.619,19.459,19.459,0,0,0,6.823-4.43c4.1-4.115,6.738-10.3,8.054-18.913,1.137-7.434,1.113-15.416,1.093-22.459v-.031c0-.919-.005-1.788-.005-2.653v-96.1c0-4.125-.167-8.342-.344-12.806-.514-12.976-1.045-26.394,2.616-38.071a47.664,47.664,0,0,1,6.141-12.536,51.8,51.8,0,0,1,9.57-10.582,45.387,45.387,0,0,1,12.018-7.314,35.775,35.775,0,0,1,13.483-2.73,32.233,32.233,0,0,1,10.218,1.661,45.317,45.317,0,0,1,19.633,13.167,45.176,45.176,0,0,1,10.5,21.16c2.119,10.971,1.7,22.924,1.286,34.483-.16,4.5-.324,9.148-.324,13.567V2417.3c0,1.994-.033,4.109-.069,6.348-.122,7.765-.261,16.563.883,24.8,1.327,9.555,4.135,16.4,8.586,20.919a20.57,20.57,0,0,0,7.23,4.753,27.82,27.82,0,0,0,10.131,1.736c.5,0,1-.01,1.5-.03a25.618,25.618,0,0,0,9.77-2.207,22.109,22.109,0,0,0,7.21-5.354,35.137,35.137,0,0,0,7.107-13.611,82.235,82.235,0,0,0,2.933-17.649c.89-12.562-.04-26.387-.787-37.5v-.007c-.426-6.332-.794-11.8-.794-16.118,0-8.791.254-17.962.522-27.671.458-16.556.932-33.673.173-50.567-.862-19.183-3.231-35.036-7.243-48.467a108.027,108.027,0,0,0-8.762-21.258A81.8,81.8,0,0,0-1027,2217.315a78.774,78.774,0,0,0-19.078-14.082,101.156,101.156,0,0,0-25.652-9.179A106.859,106.859,0,0,0-1094.88,2191.375ZM-738.2,2380.56h87.621c4.349,0,9.52.353,14.994.726h.019c6.5.443,13.226.9,19.928.9a86.338,86.338,0,0,0,16.389-1.328,33.647,33.647,0,0,0,13.3-5.225,26.451,26.451,0,0,0,5.888-5.686,23.083,23.083,0,0,0,3.433-6.552,24.105,24.105,0,0,0,.283-13.962,26.76,26.76,0,0,0-3.115-7.124,26.992,26.992,0,0,0-5.1-6.021,26.237,26.237,0,0,0-15.143-6.443c-8.144-.711-16.793-1.056-26.442-1.056-15.258,0-30.972.883-46.17,1.736l-.076,0c-15.232.856-30.982,1.74-46.349,1.74-8.723,0-16.6-.278-24.078-.851a214.358,214.358,0,0,1-23.647-3.06,56.6,56.6,0,0,1-20.513-8.44,48.826,48.826,0,0,1-15.353-15.8,34.675,34.675,0,0,1-4.567-13.283,33.169,33.169,0,0,1,1.651-14.855c4.547-13.27,13.09-21.968,26.119-26.589a76.9,76.9,0,0,1,18.489-3.786c6.622-.63,13.339-.717,19.612-.717h107.407c3.064,0,6.385.16,9.9.329h.034c3.829.184,7.789.375,11.758.375a70.882,70.882,0,0,0,13.838-1.152,30.666,30.666,0,0,0,11.913-4.8,28.091,28.091,0,0,0,5.994-5.654,23.672,23.672,0,0,0,3.583-6.447,24.181,24.181,0,0,0,.723-13.783,27.906,27.906,0,0,0-3.034-7.626,29.549,29.549,0,0,0-5.192-6.6,29.117,29.117,0,0,0-15.6-7.74,206.994,206.994,0,0,0-32.729-2.2c-9.808,0-19.823.413-29.508.812h-.018c-9.36.385-19.039.784-28.189.784-8.658,0-17.793-.347-26.626-.683-9.137-.347-18.584-.707-27.862-.707-14.287,0-25.714.859-35.96,2.7a95.741,95.741,0,0,0-25.927,8.6,96.279,96.279,0,0,0-21.607,14.831A100.935,100.935,0,0,0-855.9,2258.6a98.559,98.559,0,0,0-4.818,23.732,93.17,93.17,0,0,0,1.307,24.294,89.866,89.866,0,0,0,7.966,23.638,93.949,93.949,0,0,0,15.16,21.766,85.341,85.341,0,0,0,10.058,9.268,79.113,79.113,0,0,0,10.661,7.006,87.87,87.87,0,0,0,22.891,8.494,148.519,148.519,0,0,0,24.587,3.243c8.308.48,16.6.519,25.809.519h4.071Z" transform="translate(1434 -1783)" fill="#970747"/>
  </g>
</svg>
